<svg width="22" height="19" viewBox="0 0 22 19" fill="none" xmlns="http://www.w3.org/2000/svg">
<path fill-rule="evenodd" clip-rule="evenodd" d="M22 6.23071C22 2.77734 19.0703 0 15.4824 0C13.7852 0 12.1934 0.625977 11 1.70703C9.80664 0.625977 8.21484 0 6.51758 0C2.92969 0 0 2.77734 0 6.23071C0 9.15112 2 12.1184 5.29102 15.0483C7.42773 16.9519 10.4023 18.9949 11 19C11.5918 19 14.5664 16.9568 16.709 15.0488C19.998 12.1189 22 9.15137 22 6.23071ZM15.6211 13.7849C14.502 14.7827 13.2891 15.7161 12.1035 16.531C11.8848 16.6812 11.6738 16.8225 11.4766 16.9519C11.3066 17.0625 11.1484 17.1646 11 17.2561C10.6797 17.0571 10.3008 16.8091 9.89648 16.5305C8.70898 15.7156 7.49805 14.7822 6.37695 13.7842C3.31836 11.0591 1.5 8.36377 1.5 6.05347C1.5 3.6001 3.62305 1.58765 6.26758 1.58765C7.83594 1.58765 9.27148 2.30054 10.1582 3.47168C10.4609 3.86865 10.9727 3.98267 11.3945 3.81396C11.5645 3.74585 11.7207 3.63184 11.8418 3.47168C12.7285 2.30054 14.1641 1.58765 15.7324 1.58765C18.377 1.58765 20.5 3.6001 20.5 6.05347C20.5 8.36401 18.6816 11.0596 15.6211 13.7849Z" fill="#3CD52E"/>
</svg>
