<svg width="32" height="33" viewBox="0 0 32 33" fill="none" xmlns="http://www.w3.org/2000/svg">
<path d="M13.3949 18.7719C13.2918 18.7034 13.1862 18.6291 13.0755 18.5543C12.7536 18.4557 12.4118 18.4045 12.0618 18.4H12.0195C10.4106 18.4 9 19.3735 9 20.4845C9 21.6941 10.209 22.6394 11.7514 22.6394C13.7859 22.6394 14.817 21.9367 14.817 20.5543C14.817 20.4237 14.8016 20.288 14.769 20.1517C14.6314 19.6154 14.1392 19.2807 13.3949 18.7719Z" fill="#DD4B39"/>
<path d="M12.2708 14.4042C12.272 14.4042 12.272 14.4042 12.272 14.4042C12.6567 14.4042 12.9812 14.2525 13.2327 13.9645C13.6269 13.5152 13.8016 12.7779 13.698 11.9952C13.5156 10.5962 12.5152 9.43138 11.4714 9.4013L11.4298 9.40002C11.0605 9.40002 10.7309 9.55234 10.4807 9.83906C10.0922 10.2826 9.92771 10.9853 10.0295 11.7667C10.2125 13.1645 11.234 14.3722 12.256 14.4042H12.2708Z" fill="#DD4B39"/>
<path fill-rule="evenodd" clip-rule="evenodd" d="M15.8887 0.400024C7.12695 0.400024 0 7.52747 0 16.2887C0 25.049 7.12695 32.1774 15.8887 32.1774C24.6484 32.1774 31.7773 25.049 31.7773 16.2887C31.7773 7.52747 24.6504 0.400024 15.8887 0.400024ZM13.0957 24.2247C12.7812 24.2662 12.457 24.2867 12.125 24.2867C11.3672 24.2867 10.6367 24.1998 9.95703 24.028C8.64062 23.6954 7.66797 23.066 7.21289 22.2545C7.01758 21.9034 6.91797 21.5299 6.91797 21.1427C6.91797 20.9288 6.94531 20.7135 7 20.4977C7.04688 20.3112 7.11328 20.1246 7.20117 19.9386C7.92188 18.4015 9.82422 17.3673 11.9297 17.3673H11.9902C11.9121 17.2296 11.8516 17.09 11.8105 16.9474C11.7773 16.8365 11.7559 16.7242 11.7441 16.61C11.7383 16.549 11.7363 16.4874 11.7363 16.4254C11.7363 16.2618 11.7598 16.0958 11.8027 15.9259C9.59375 15.8761 7.93945 14.2579 7.93945 12.1251C7.93945 10.6193 9.14453 9.15149 10.8652 8.5592C11.3809 8.38098 11.9062 8.29016 12.4219 8.29016H17.1465C17.3086 8.29016 17.4512 8.39465 17.5 8.54749C17.5215 8.61243 17.5234 8.6803 17.5098 8.74426C17.5 8.78577 17.4824 8.82532 17.459 8.86145C17.4355 8.89954 17.4043 8.93372 17.3652 8.96155L16.3086 9.7262C16.2461 9.77112 16.1699 9.79553 16.0898 9.79553H15.7129C16.2012 10.381 16.4863 11.2164 16.4863 12.1539C16.4863 13.1886 15.9629 14.1671 15.0098 14.9127C14.2734 15.4865 14.2461 15.6442 14.2461 15.9713C14.248 16.0084 14.2715 16.0621 14.3105 16.1281C14.3418 16.1803 14.3848 16.2404 14.4375 16.3053C14.6387 16.5577 14.9746 16.8854 15.332 17.1383C16.6504 18.0699 17.1406 18.9845 17.1406 20.5104C17.1406 22.1046 15.9297 23.4821 14.0566 24.026C13.748 24.1149 13.4277 24.1813 13.0957 24.2247ZM24.3555 16.2931C24.5605 16.2931 24.7266 16.1266 24.7266 15.922V15.1569C24.7266 14.9523 24.5586 14.7858 24.3555 14.7858H21.6699V12.1022C21.6699 11.8966 21.5039 11.7311 21.3008 11.7311H20.5352C20.3301 11.7311 20.1641 11.8966 20.1641 12.1022V14.7858H17.4805C17.2754 14.7858 17.1094 14.9532 17.1094 15.1583V15.922C17.1094 16.1281 17.2754 16.2931 17.4805 16.2931H20.1641V18.9791C20.1641 19.1837 20.3301 19.3502 20.5352 19.3502H21.3008C21.5039 19.3502 21.6699 19.1837 21.6699 18.9791V16.2931H24.3555Z" fill="#DD4B39"/>
</svg>
