<svg width="32" height="33" viewBox="0 0 32 33" fill="none" xmlns="http://www.w3.org/2000/svg">
<path d="M16.1795 18.7616C17.9325 18.7616 19.3616 17.3351 19.3616 15.5808C19.3616 14.8883 19.135 14.249 18.76 13.7267C18.1821 12.9255 17.2426 12.4 16.1814 12.4C15.1197 12.4 14.1808 12.9248 13.6016 13.7261C13.2253 14.2483 13.0006 14.8877 13 15.5802C12.9981 17.3344 14.4259 18.7616 16.1795 18.7616Z" fill="#E4415E"/>
<path d="M23.0637 12.4631V9.79682V9.40002L22.665 9.4013L20 9.40962L20.0102 12.4733L23.0637 12.4631Z" fill="#E4415E"/>
<path fill-rule="evenodd" clip-rule="evenodd" d="M0 16.2887C0 7.52747 7.12695 0.400024 15.8887 0.400024C24.6504 0.400024 31.7773 7.52747 31.7773 16.2887C31.7773 25.049 24.6484 32.1774 15.8887 32.1774C7.12695 32.1774 0 25.049 0 16.2887ZM24.9238 21.8331V14.4347V10.7457C24.9238 8.81897 23.3574 7.25305 21.4316 7.25305H10.3438C8.41797 7.25305 6.85156 8.81897 6.85156 10.7457V14.4347V21.8331C6.85156 23.7599 8.41797 25.3258 10.3438 25.3258H21.4316C23.3574 25.3258 24.9238 23.7599 24.9238 21.8331Z" fill="#E4415E"/>
<path d="M21.2189 16.2541C21.2189 18.9786 19.0019 21.1968 16.2762 21.1968C13.5504 21.1968 11.3341 18.9786 11.3341 16.2541C11.3341 15.5987 11.4646 14.9722 11.6976 14.4H9V21.7984C9 22.7546 9.77632 23.529 10.7318 23.529H21.8186C22.7728 23.529 23.5504 22.7546 23.5504 21.7984V14.4H20.8515C21.0864 14.9722 21.2189 15.5987 21.2189 16.2541Z" fill="#E4415E"/>
</svg>
