<svg width="13" height="16" viewBox="0 0 13 16" fill="none" xmlns="http://www.w3.org/2000/svg">
<path fill-rule="evenodd" clip-rule="evenodd" d="M0 6.33569C0 2.84229 2.8418 0 6.33594 0C9.83008 0 12.6719 2.84229 12.6719 6.33569C12.6719 10.7378 6.86523 14.7483 6.61719 14.9167C6.56641 14.9519 6.50977 14.9763 6.45117 14.9901C6.41406 14.9991 6.375 15.0037 6.33594 15.0037C6.23438 15.0037 6.13477 14.9731 6.04688 14.9121C5.80078 14.7378 0 10.5935 0 6.33569ZM1 6.33569C1 9.58276 5.19727 13.0107 6.33984 13.884C7.48633 13.0337 11.6719 9.69629 11.6719 6.33569C11.6719 3.39355 9.27734 1 6.33594 1C3.39453 1 1 3.39355 1 6.33569ZM6.33594 3.12134C4.625 3.12134 3.23047 4.51489 3.23047 6.22754C3.23047 7.94019 4.625 9.33374 6.33594 9.33374C8.04883 9.33374 9.44336 7.94019 9.44336 6.22754C9.44336 4.51489 8.04883 3.12134 6.33594 3.12134ZM4.23047 6.22754C4.23047 7.38892 5.17578 8.33374 6.33594 8.33374C7.49805 8.33374 8.44336 7.38892 8.44336 6.22754C8.44336 5.06616 7.49805 4.12134 6.33594 4.12134C5.17578 4.12134 4.23047 5.06616 4.23047 6.22754Z" fill="#5C5C60"/>
</svg>
