<svg width="32" height="33" viewBox="0 0 32 33" fill="none" xmlns="http://www.w3.org/2000/svg">
<path fill-rule="evenodd" clip-rule="evenodd" d="M0 16.2887C0 7.52747 7.12695 0.400024 15.8887 0.400024C24.6504 0.400024 31.7773 7.52747 31.7773 16.2887C31.7773 25.049 24.6484 32.1774 15.8887 32.1774C7.12695 32.1774 0 25.049 0 16.2887ZM22.9863 12.902L22.9766 12.6525C23.6914 12.1383 24.3125 11.4938 24.8008 10.7618C24.1465 11.0529 23.4395 11.2487 22.6992 11.337C23.457 10.8839 24.0352 10.1676 24.3105 9.3136C23.6016 9.73401 22.8203 10.0372 21.9863 10.2013C21.3184 9.49084 20.3691 9.04651 19.3164 9.04651C17.2969 9.04651 15.6602 10.6842 15.6602 12.7032C15.6602 12.8561 15.6699 13.0065 15.6875 13.1539C15.7031 13.2838 15.7246 13.4117 15.7539 13.5372C12.7168 13.3839 10.0195 11.9283 8.2168 9.71545C7.90234 10.2555 7.72266 10.8839 7.72266 11.5548C7.72266 12.8234 8.36914 13.943 9.34961 14.5978C8.75 14.5792 8.18555 14.4142 7.69336 14.1407V14.1871C7.69336 15.277 8.16992 16.2555 8.92578 16.9254C9.39844 17.3448 9.98047 17.6437 10.625 17.7731C10.3184 17.8566 9.99609 17.9005 9.66211 17.9005C9.42773 17.9005 9.19727 17.8766 8.97461 17.8341C9.43945 19.2877 10.791 20.3448 12.3906 20.3746C11.1387 21.3551 9.5625 21.9401 7.84961 21.9401C7.60156 21.9401 7.35547 21.9279 7.11719 21.9039L6.97656 21.8888C8.59375 22.9269 10.5176 23.5304 12.582 23.5304C19.3105 23.5304 22.9883 17.9596 22.9883 13.1271L22.9863 12.902Z" fill="#55ACEE"/>
</svg>
